Coordinates
version=1
nRows=14
nColumns=24
inDegrees=yes

Units are S.I. units (second, meters, Newtons, ...)
Angles are in degrees.

endheader
time	pelvis_tilt	pelvis_list	pelvis_rotation	pelvis_tx	pelvis_ty	pelvis_tz	hip_flexion_r	hip_adduction_r	hip_rotation_r	knee_angle_r	ankle_angle_r	subtalar_angle_r	mtp_angle_r	hip_flexion_l	hip_adduction_l	hip_rotation_l	knee_angle_l	ankle_angle_l	subtalar_angle_l	mtp_angle_l	lumbar_extension	lumbar_bending	lumbar_rotation
      3.61500000	     -7.80139996	    -11.03737776	      0.60331333	     -1.48706655	     -0.02617156	     -0.31260845	     14.20521264	     16.11516251	      2.85518854	    -19.49504331	      5.14520312	     -3.03261455	      9.14087121	     27.12602976	    -16.11272216	     -0.83006631	    -67.74653443	    -10.30943309	     -4.31750357	     22.89073291	      9.26365415	      9.05614062	     -7.78809962
      3.62000000	     -7.70180401	    -10.72484261	      0.46383857	     -1.48067214	     -0.02505459	     -0.31215569	     13.22805750	     15.90941401	      3.46103712	    -18.87461420	      5.13519856	     -3.37194714	      8.62870103	     27.68107895	    -15.80031220	     -1.09628861	    -67.13699840	     -9.83108893	     -4.28411808	     22.89310323	      9.13600781	      8.73629434	     -7.49323133
      3.62500000	     -7.57833800	    -10.46866190	      0.30848323	     -1.47430929	     -0.02401381	     -0.31169555	     12.21462307	     15.75558217	      4.10323093	    -18.22990071	      5.13843900	     -3.68833613	      8.04854630	     28.20123667	    -15.56534899	     -1.37525930	    -66.47033450	     -9.35082161	     -4.12159359	     22.95893322	      8.97672970	      8.48525537	     -7.19484870
      3.63000000	     -7.50002707	    -10.18655742	      0.16639601	     -1.46799458	     -0.02305023	     -0.31129285	     11.28613157	     15.53856935	      4.57531535	    -17.62138373	      5.14706423	     -3.88305917	      7.60102007	     28.74770574	    -15.27689847	     -1.63469012	    -65.71163380	     -8.89713837	     -3.86333324	     23.07731919	      8.86621338	      8.20431891	     -6.91259296
      3.63500000	     -7.45121903	     -9.90010708	      0.02978414	     -1.46171290	     -0.02215310	     -0.31093074	     10.41531188	     15.28918718	      4.90272869	    -17.02928326	      5.12744843	     -3.98919969	      7.30215175	     29.30615444	    -14.97059089	     -1.88620505	    -64.87089653	     -8.49289183	     -3.53809179	     23.20759033	      8.78643237	      7.91903312	     -6.63528572
      3.64000000	     -7.33372761	     -9.68264180	     -0.12916772	     -1.45542994	     -0.02131763	     -0.31058359	      9.44150535	     15.10948365	      5.35186423	    -16.39330515	      5.12028887	     -4.08846697	      6.99836597	     29.76752146	    -14.75719762	     -2.15493434	    -63.97606468	     -8.04193001	     -3.14155261	     23.36329786	      8.62985229	      7.72480509	     -6.34570656
      3.64500000	     -7.26754712	     -9.44951243	     -0.28126031	     -1.44917534	     -0.02056524	     -0.31027644	      8.56183662	     14.88795650	      5.62761052	    -15.79880226	      5.08802860	     -4.10468679	      6.80532332	     30.26067454	    -14.50733462	     -2.40627435	    -62.99896027	     -7.63974133	     -2.70968178	     23.48753100	      8.52754565	      7.51271981	     -6.05712279
      3.65000000	     -7.19175516	     -9.24731505	     -0.43436529	     -1.44292927	     -0.01990323	     -0.30999563	      7.67826206	     14.68602159	      5.88202827	    -15.20748582	      5.06567314	     -4.06875187	      6.68859149	     30.72354194	    -14.28724552	     -2.64858774	    -61.96075689	     -7.23454849	     -2.26012727	     23.58909044	      8.41709214	      7.33567915	     -5.77403383
      3.65500000	     -7.06908155	     -9.08904183	     -0.59640077	     -1.43668775	     -0.01930563	     -0.30976616	      6.73957547	     14.51961970	      6.16514503	    -14.60611096	      5.04061235	     -4.01919713	      6.61655628	     31.11193410	    -14.11709608	     -2.89523573	    -60.86813455	     -6.79153451	     -1.79754828	     23.63622039	      8.25413421	      7.22524820	     -5.48157538
      3.66000000	     -6.97802558	     -8.92979921	     -0.75652950	     -1.43045671	     -0.01880184	     -0.30957479	      5.86218281	     14.33859271	      6.37030024	    -14.04240698	      5.00653564	     -3.93148720	      6.60140484	     31.50833443	    -13.93504637	     -3.13185331	    -59.70589845	     -6.36770336	     -1.33965603	     23.62282485	      8.12458004	      7.11369184	     -5.18738303
      3.66500000	     -6.90640647	     -8.77562336	     -0.92218578	     -1.42424219	     -0.01837311	     -0.30940501	      5.03347556	     14.15483657	      6.51993077	    -13.52036963	      4.96290516	     -3.81219962	      6.61955902	     31.89585716	    -13.75314643	     -3.36071898	    -58.47098805	     -5.96632416	     -0.89337622	     23.56265978	      8.01566241	      7.01166792	     -4.89185522
      3.67000000	     -6.93300765	     -8.65200622	     -1.04092028	     -1.41804596	     -0.01818836	     -0.30941767	      4.32893970	     13.98482585	      6.68790548	    -13.02634056	      4.99357826	     -3.66045997	      6.65223430	     32.39780265	    -13.53907258	     -3.48490701	    -57.19185176	     -5.60782192	     -0.60109025	     23.50814089	      8.02259444	      6.95318180	     -4.70435201
      3.67500000	     -6.72286934	     -8.52489577	     -1.26588148	     -1.41184710	     -0.01777191	     -0.30918242	      3.36992760	     13.82536421	      6.84887049	    -12.54425656	      4.93371935	     -3.52638639	      6.74028721	     32.55000615	    -13.45172965	     -3.83035754	    -55.83568788	     -5.10132564	     -0.07543435	     23.23474552	      7.74274233	      6.89100532	     -4.27659123
      3.68000000	     -6.65082300	     -8.39390864	     -1.42558613	     -1.40564627	     -0.01759076	     -0.30913131	      2.58645680	     13.64723041	      7.00622587	    -12.09868829	      4.91407497	     -3.42861650	      6.83864236	     32.85431336	    -13.27610994	     -4.04713800	    -54.42696164	     -4.64351578	      0.30896940	     22.84297619	      7.63367517	      6.82551915	     -3.97924540
